<svg xmlns="http://www.w3.org/2000/svg" width="71.005" height="60.695" viewBox="0 0 71.005 60.695">
  <g id="comma" transform="translate(-1.501 -6.631)">
    <path id="Path_89" data-name="Path 89" d="M18.441,66.824A16.391,16.391,0,0,1,2.068,50.451c0-.027,0-.055,0-.082,0-.054-.007-.135-.013-.242-.336-5.946.636-22,16.879-42.571a1,1,0,0,1,1.731.942c-.046.136-4.485,13.433-1.452,25.6a16.373,16.373,0,0,1-.776,32.728ZM4.068,50.508A14.373,14.373,0,1,0,18.441,36.079a1,1,0,0,1-.964-.735c-2.3-8.37-1.172-17.15-.029-22.478C4.564,30.914,3.755,44.69,4.056,50.015a4.231,4.231,0,0,1,.012.493Z" fill="#ffae00" stroke="#ffae00" stroke-width="1"/>
    <path id="Path_90" data-name="Path 90" d="M55.627,66.824A16.391,16.391,0,0,1,39.254,50.451c0-.027,0-.055,0-.082,0-.054-.007-.135-.013-.242-.336-5.946.636-22,16.879-42.571a1,1,0,0,1,1.731.942c-.046.136-4.485,13.433-1.452,25.6a16.373,16.373,0,0,1-.776,32.728ZM41.254,50.508A14.373,14.373,0,1,0,55.627,36.079a1,1,0,0,1-.964-.735c-2.3-8.37-1.172-17.15-.029-22.478C41.75,30.914,40.94,44.69,41.241,50.015a4.231,4.231,0,0,1,.013.493Z" fill="#ffae00" stroke="#ffae00" stroke-width="1"/>
  </g>
</svg>
