<svg xmlns="http://www.w3.org/2000/svg" width="113.413" height="124.667" viewBox="0 0 113.413 124.667">
  <g id="ideas" transform="translate(-23.11 0)">
    <g id="Group_18" data-name="Group 18" transform="translate(23.11 0)">
      <path id="Path_43" data-name="Path 43" d="M134.171,0a39.231,39.231,0,0,0-19.982,73.021,6.748,6.748,0,0,1,3.292,5.816v9.555a3.189,3.189,0,0,1,1.233-.247h30.808a3.188,3.188,0,0,1,1.233.247V78.837a6.818,6.818,0,0,1,3.361-5.856A39.231,39.231,0,0,0,134.171,0Z" transform="translate(-77.413 0)" fill="#ffe181"/>
      <g id="Group_7" data-name="Group 7" transform="translate(17.478 0)">
        <path id="Path_44" data-name="Path 44" d="M127.85,78.837a6.748,6.748,0,0,0-3.292-5.816A39.231,39.231,0,0,1,139.313.342,39.249,39.249,0,0,0,94.891,39.229a39.206,39.206,0,0,0,19.3,33.792,6.748,6.748,0,0,1,3.292,5.816v9.555a3.189,3.189,0,0,1,1.233-.247h9.135Z" transform="translate(-94.891 0)" fill="#fec458"/>
      </g>
      <g id="Group_8" data-name="Group 8" transform="translate(59.738 41.271)">
        <path id="Path_45" data-name="Path 45" d="M270.334,218.255a1.881,1.881,0,0,1-1.881-1.881V199.537a7.73,7.73,0,0,1,1.6-4.7l2.692-3.485a3.947,3.947,0,0,0,.819-2.4v-17.57a1.881,1.881,0,0,1,3.762,0v17.57a7.73,7.73,0,0,1-1.6,4.7l-2.692,3.485a3.945,3.945,0,0,0-.819,2.4v16.836A1.881,1.881,0,0,1,270.334,218.255Z" transform="translate(-268.453 -169.5)" fill="#ffb640"/>
      </g>
      <g id="Group_9" data-name="Group 9" transform="translate(44.796 41.272)">
        <path id="Path_46" data-name="Path 46" d="M214.083,218.255a1.881,1.881,0,0,1-1.881-1.881V199.537a3.948,3.948,0,0,0-.819-2.4l-2.692-3.485a7.729,7.729,0,0,1-1.6-4.7v-17.57a1.881,1.881,0,0,1,3.762,0v17.57a3.946,3.946,0,0,0,.819,2.4l2.692,3.485a7.729,7.729,0,0,1,1.6,4.7v16.836A1.881,1.881,0,0,1,214.083,218.255Z" transform="translate(-207.087 -169.5)" fill="#ffb640"/>
      </g>
      <g id="Group_10" data-name="Group 10" transform="translate(68.669 10.574)">
        <path id="Path_47" data-name="Path 47" d="M320.533,64.4A27.267,27.267,0,0,0,306.183,47a1.881,1.881,0,1,1,1.656-3.378,31.03,31.03,0,0,1,16.327,19.806,1.881,1.881,0,1,1-3.634.975Z" transform="translate(-305.13 -43.426)" fill="#ffeac8"/>
      </g>
      <path id="Path_48" data-name="Path 48" d="M224.8,475.139v1.378a7.6,7.6,0,1,0,15.194,0v-1.378Z" transform="translate(-175.69 -359.448)" fill="#8479c2"/>
      <path id="Path_49" data-name="Path 49" d="M231.6,476.517v-1.378h-6.8v1.378a7.619,7.619,0,0,0,7.6,7.6,7.524,7.524,0,0,0,3.4-.811A7.618,7.618,0,0,1,231.6,476.517Z" transform="translate(-175.69 -359.448)" fill="#6e60b8"/>
      <g id="Group_11" data-name="Group 11" transform="translate(42.916 43.358)">
        <path id="Path_50" data-name="Path 50" d="M225.063,181.831H201.245a1.881,1.881,0,1,1,0-3.762h23.818a1.881,1.881,0,1,1,0,3.762Z" transform="translate(-199.364 -178.069)" fill="#fec458"/>
      </g>
      <g id="Group_12" data-name="Group 12" transform="translate(0 36.343)">
        <path id="Path_51" data-name="Path 51" d="M31.463,153.021H24.991a1.881,1.881,0,1,1,0-3.762h6.472a1.881,1.881,0,1,1,0,3.762Z" transform="translate(-23.11 -149.259)" fill="#fec458"/>
      </g>
      <g id="Group_13" data-name="Group 13" transform="translate(2.935 22.23)">
        <path id="Path_52" data-name="Path 52" d="M42.428,97.236l-6.051-2.3a1.881,1.881,0,0,1,1.335-3.518l6.051,2.3a1.881,1.881,0,1,1-1.335,3.518Z" transform="translate(-35.163 -91.299)" fill="#fec458"/>
      </g>
      <g id="Group_14" data-name="Group 14" transform="translate(2.935 48.158)">
        <path id="Path_53" data-name="Path 53" d="M35.286,202.629a1.881,1.881,0,0,1,1.091-2.426l6.051-2.3a1.881,1.881,0,1,1,1.335,3.518l-6.051,2.3A1.881,1.881,0,0,1,35.286,202.629Z" transform="translate(-35.163 -197.783)" fill="#fec458"/>
      </g>
      <g id="Group_15" data-name="Group 15" transform="translate(103.178 36.343)">
        <path id="Path_54" data-name="Path 54" d="M455.212,153.021H448.74a1.881,1.881,0,1,1,0-3.762h6.472a1.881,1.881,0,1,1,0,3.762Z" transform="translate(-446.859 -149.259)" fill="#fec458"/>
      </g>
      <g id="Group_16" data-name="Group 16" transform="translate(100.663 22.23)">
        <path id="Path_55" data-name="Path 55" d="M436.652,96.143a1.881,1.881,0,0,1,1.091-2.426l6.051-2.3a1.881,1.881,0,1,1,1.335,3.518l-6.05,2.3A1.882,1.882,0,0,1,436.652,96.143Z" transform="translate(-436.529 -91.298)" fill="#fec458"/>
      </g>
      <g id="Group_17" data-name="Group 17" transform="translate(100.663 48.158)">
        <path id="Path_56" data-name="Path 56" d="M443.8,203.721l-6.051-2.3a1.881,1.881,0,1,1,1.335-3.518l6.051,2.3a1.881,1.881,0,0,1-1.335,3.518Z" transform="translate(-436.53 -197.784)" fill="#fec458"/>
      </g>
      <path id="Path_57" data-name="Path 57" d="M218.684,437.171H192.889a3.268,3.268,0,0,0-3.264,3.264v2.779a3.268,3.268,0,0,0,3.264,3.264h25.795a3.268,3.268,0,0,0,3.264-3.264v-2.779A3.268,3.268,0,0,0,218.684,437.171Z" transform="translate(-149.08 -330.724)" fill="#efecef"/>
      <path id="Path_58" data-name="Path 58" d="M218.684,449.055H192.889a3.269,3.269,0,0,1-3.126-2.327,3.251,3.251,0,0,0-.139.937v2.779a3.268,3.268,0,0,0,3.264,3.264h25.795a3.268,3.268,0,0,0,3.264-3.264v-2.779a3.248,3.248,0,0,0-.139-.937A3.269,3.269,0,0,1,218.684,449.055Z" transform="translate(-149.08 -337.954)" fill="#e2dfe2"/>
      <path id="Path_59" data-name="Path 59" d="M213.4,399.461H182.593a3.268,3.268,0,0,0-3.264,3.264V405.5a3.268,3.268,0,0,0,3.264,3.264H213.4a3.268,3.268,0,0,0,3.264-3.264v-2.779A3.268,3.268,0,0,0,213.4,399.461Z" transform="translate(-141.291 -302.196)" fill="#efecef"/>
      <path id="Path_60" data-name="Path 60" d="M213.4,411.344H182.592a3.269,3.269,0,0,1-3.126-2.327,3.251,3.251,0,0,0-.139.937v2.779A3.268,3.268,0,0,0,182.592,416H213.4a3.268,3.268,0,0,0,3.264-3.264v-2.779a3.249,3.249,0,0,0-.139-.937A3.269,3.269,0,0,1,213.4,411.344Z" transform="translate(-141.291 -309.426)" fill="#e2dfe2"/>
      <path id="Path_61" data-name="Path 61" d="M213.4,361.75H182.593a3.268,3.268,0,0,0-3.264,3.264v2.779a3.268,3.268,0,0,0,3.264,3.264H213.4a3.268,3.268,0,0,0,3.264-3.264v-2.779A3.268,3.268,0,0,0,213.4,361.75Z" transform="translate(-141.291 -273.668)" fill="#efecef"/>
      <path id="Path_62" data-name="Path 62" d="M213.4,373.634H182.592a3.269,3.269,0,0,1-3.126-2.327,3.251,3.251,0,0,0-.139.937v2.779a3.268,3.268,0,0,0,3.264,3.264H213.4a3.268,3.268,0,0,0,3.264-3.264v-2.779a3.249,3.249,0,0,0-.139-.937A3.269,3.269,0,0,1,213.4,373.634Z" transform="translate(-141.291 -280.898)" fill="#e2dfe2"/>
    </g>
  </g>
</svg>
