<svg xmlns="http://www.w3.org/2000/svg" width="59.41" height="60.435" viewBox="0 0 59.41 60.435">
  <g id="linkedin" transform="translate(0 -109.602)">
    <ellipse id="Ellipse_7" data-name="Ellipse 7" cx="29.705" cy="30.217" rx="29.705" ry="30.217" transform="translate(0 109.602)" fill="#6a6975"/>
    <path id="Path_108" data-name="Path 108" d="M27.1,15.692V25.6h-5.81V16.358c0-2.321-.838-3.906-2.944-3.906a3.176,3.176,0,0,0-2.979,2.1,3.845,3.845,0,0,0-.192,1.4V25.6H9.365s.079-15.653,0-17.273h5.813v2.449c-.011.019-.028.037-.038.056h.038v-.056a5.781,5.781,0,0,1,5.237-2.854c3.823,0,6.688,2.47,6.688,7.773ZM3.289,0a3,3,0,1,0-.076,5.968h.036A3,3,0,1,0,3.289,0ZM.345,25.6H6.154V8.325H.345Zm0,0" transform="translate(15.877 126.731)" fill="#fff"/>
  </g>
</svg>
