<svg xmlns="http://www.w3.org/2000/svg" width="133.659" height="133.667" viewBox="0 0 133.659 133.667">
  <g id="marketing" transform="translate(-0.974 -0.971)">
    <g id="Digital_Marketing" data-name="Digital Marketing" transform="translate(0.974 0.971)">
      <path id="Path_23" data-name="Path 23" d="M74.763,48.424a2.7,2.7,0,0,1-1.917-4.617,2.613,2.613,0,0,0,.813-1.888c0-1.481-.523-1.626-5.2-6.3a2.643,2.643,0,0,0-3.8,0A2.7,2.7,0,0,1,60.04,33.7a2.7,2.7,0,0,0-2.7-2.7H51.125a2.7,2.7,0,0,0-2.7,2.7,2.7,2.7,0,0,1-4.617,1.917,2.643,2.643,0,0,0-1.888-.813c-1.481,0-1.626.523-6.3,5.2a2.643,2.643,0,0,0,0,3.8A2.7,2.7,0,0,1,33.7,48.424a2.7,2.7,0,0,0-2.7,2.7v6.215a2.7,2.7,0,0,0,2.7,2.7,2.7,2.7,0,0,1,1.917,4.617,2.614,2.614,0,0,0,0,3.8L40,72.847a2.643,2.643,0,0,0,3.8,0,2.7,2.7,0,0,1,4.617,1.917,2.7,2.7,0,0,0,2.7,2.7h6.215a2.7,2.7,0,0,0,2.7-2.7,2.7,2.7,0,0,1,2.73-2.7c1.946,0,1.888,1.6,3.775,1.6s1.626-.523,6.3-5.2a2.672,2.672,0,0,0,0-3.8,2.7,2.7,0,0,1,1.917-4.617,2.7,2.7,0,0,0,2.7-2.7V51.125a2.7,2.7,0,0,0-2.7-2.7ZM49.7,46.8a8.712,8.712,0,1,1-3.846,9.788A8.712,8.712,0,0,1,49.7,46.8Z" transform="translate(56.195 56.203)" fill="#374f68"/>
      <path id="Path_24" data-name="Path 24" d="M69.12,48.424A2.7,2.7,0,0,1,67.2,43.807a2.614,2.614,0,0,0,.813-1.888c0-1.481-.523-1.626-5.2-6.3a2.643,2.643,0,0,0-3.8,0A2.7,2.7,0,0,1,54.4,33.7,2.7,2.7,0,0,0,51.7,31H45.482a2.7,2.7,0,0,0-2.7,2.7,2.7,2.7,0,0,1-4.617,1.917,2.352,2.352,0,0,0-1.481-.755C26.2,54.726,48.037,76.651,67.959,66.138,67.785,64.57,66.42,64.6,66.42,62.77a2.7,2.7,0,0,1,2.7-2.73,2.7,2.7,0,0,0,2.7-2.7V51.125a2.7,2.7,0,0,0-2.7-2.7Zm-13.1,10.338a8.712,8.712,0,1,1,.155-8.8A8.712,8.712,0,0,1,56.023,58.762Z" transform="translate(61.838 56.203)" fill="#425b72"/>
      <rect id="Rectangle_10" data-name="Rectangle 10" width="46.464" height="34.848" rx="2" transform="translate(87.195 0.083)" fill="#db5669"/>
      <path id="Path_25" data-name="Path 25" d="M71.752,6.808V30.04H39.808A5.808,5.808,0,0,1,34,24.232V1H65.944A5.808,5.808,0,0,1,71.752,6.808Z" transform="translate(61.907 -0.917)" fill="#f26674"/>
      <path id="Path_26" data-name="Path 26" d="M47.513,29.069a5.808,5.808,0,0,1-5.808,5.808H6.857a5.808,5.808,0,0,1-5.808-5.808C1.049,4.414.381,3.775,3.024,1.51L24.281,17.453,45.539,1.51C48.181,3.775,47.513,4.036,47.513,29.069Z" transform="translate(-0.974 0.054)" fill="#fc6"/>
      <path id="Path_27" data-name="Path 27" d="M41.752,29.069H9.808A5.808,5.808,0,0,1,4,23.261V6.563l14.52,10.89L39.777,1.51C42.42,3.775,41.752,4.036,41.752,29.069Z" transform="translate(4.787 0.054)" fill="#ffde76"/>
      <path id="Path_28" data-name="Path 28" d="M49.226,14.116l-8.015,4.037A2.9,2.9,0,0,1,37,15.539V7.524a2.9,2.9,0,0,1,2.9-2.9c.958,0,.61,0,9.235,4.356a2.9,2.9,0,0,1,.087,5.14Z" transform="translate(67.619 5.975)" fill="#dad7e5"/>
      <path id="Path_29" data-name="Path 29" d="M44.194,2.526,22.937,18.469,1.68,2.526A5.634,5.634,0,0,1,5.513,1.045c37.2,0,36.445-.552,38.681,1.481Z" transform="translate(0.37 -0.962)" fill="#ffba55"/>
      <path id="Path_30" data-name="Path 30" d="M38.388,51.391,26.221,63.7a8.712,8.712,0,0,1-12.313,0L5.544,55.486A8.712,8.712,0,0,1,4.179,44.973c.755-1.365.639-1.074,13.678-14.113Z" transform="translate(2.895 55.936)" fill="#db5669"/>
      <path id="Path_31" data-name="Path 31" d="M33.168,47.035l-7.812,7.957a8.712,8.712,0,0,1-12.313,0C4.128,46.077,4.157,46.28,3.46,44.973,4.215,43.609,4.1,43.9,17.138,30.86Z" transform="translate(3.759 55.936)" fill="#f26674"/>
      <path id="Path_32" data-name="Path 32" d="M23.168,59.871,11,47.558l8.218-8.218C32.49,52.873,31.822,52,32.286,52.873a5.808,5.808,0,0,1-9.119,7Z" transform="translate(18.115 72.082)" fill="#374f68"/>
      <path id="Path_33" data-name="Path 33" d="M30.382,52.873a5.808,5.808,0,0,1-9.119,1.191L12,44.654l5.314-5.314C30.586,52.873,29.918,52,30.382,52.873Z" transform="translate(20.019 72.082)" fill="#425b72"/>
      <path id="Path_34" data-name="Path 34" d="M67.681,58.482l-39.03,18.5L8.12,56.45c4.153-8.712.552-1.1,18.5-39.03Z" transform="translate(12.632 30.346)" fill="#dad7e5"/>
      <path id="Path_35" data-name="Path 35" d="M59.91,52.558,32.351,65.568a8.712,8.712,0,0,1-9.874-1.713L9.09,50.526,24.772,17.42Z" transform="translate(14.479 30.346)" fill="#edebf2"/>
      <path id="Path_36" data-name="Path 36" d="M38.564,32.122a11.616,11.616,0,0,1-3.427,8.189L18.73,23.9a11.616,11.616,0,0,1,19.834,8.218Z" transform="translate(32.833 36.204)" fill="#374f68"/>
      <path id="Path_37" data-name="Path 37" d="M36.2,31.026a5.808,5.808,0,0,1-7.376-.639L19.94,21.5A11.616,11.616,0,0,1,36.2,31.026Z" transform="translate(35.137 36.226)" fill="#425b72"/>
      <g id="Group_6" data-name="Group 6" transform="translate(61.059 34.931)">
        <path id="Path_38" data-name="Path 38" d="M29.106,27.488a2.9,2.9,0,0,1-2.033-4.966l6.156-6.186a2.9,2.9,0,0,1,3.978,4.124C30.645,27.168,30.7,27.488,29.106,27.488Z" transform="translate(-13.976 -7.624)" fill="#f26674"/>
        <path id="Path_39" data-name="Path 39" d="M22,24.616V15.9a2.9,2.9,0,1,1,5.808,0v8.712a2.9,2.9,0,0,1-5.808,0Z" transform="translate(-22 -13)" fill="#f26674"/>
        <path id="Path_40" data-name="Path 40" d="M39.616,27.808H30.9A2.9,2.9,0,1,1,30.9,22h8.712a2.9,2.9,0,0,1,0,5.808Z" transform="translate(-10.576 4.136)" fill="#f26674"/>
      </g>
      <path id="Path_41" data-name="Path 41" d="M46.761,14.455A8.712,8.712,0,0,1,38.049,4.61c.958,0,.61,0,9.235,4.356,1.626.755,3.049,3.6-.523,5.489Z" transform="translate(69.475 5.956)" fill="#edebf2"/>
      <path id="Path_42" data-name="Path 42" d="M39.777,2.535,18.52,18.478,4,7.588V1.054C37.744,1.054,37.483.444,39.777,2.535Z" transform="translate(4.787 -0.971)" fill="#fc6"/>
    </g>
  </g>
</svg>
