<svg xmlns="http://www.w3.org/2000/svg" width="105.095" height="123.833" viewBox="0 0 105.095 123.833">
  <g id="motion" transform="translate(-38.738)">
    <g id="Group_26" data-name="Group 26" transform="translate(38.738 0)">
      <path id="Path_63" data-name="Path 63" d="M178.8,365.149v5.09a1.779,1.779,0,0,0,1.779,1.779h65.847a1.779,1.779,0,0,0,1.779-1.779v-5.09a1.779,1.779,0,0,0-1.779-1.779H180.576A1.779,1.779,0,0,0,178.8,365.149Z" transform="translate(-144.922 -275.485)" fill="#c5d3dd"/>
      <path id="Path_64" data-name="Path 64" d="M178.8,365.149v5.09a1.779,1.779,0,0,0,1.779,1.779h49.263a1.779,1.779,0,0,0,1.779-1.779v-5.09a1.779,1.779,0,0,0-1.779-1.779H180.576A1.779,1.779,0,0,0,178.8,365.149Z" transform="translate(-144.922 -275.485)" fill="#fe9738"/>
      <path id="Path_65" data-name="Path 65" d="M46.239,365.063v5.264a1.692,1.692,0,0,0,1.692,1.692H65.939a1.692,1.692,0,0,0,1.692-1.692v-5.264a1.692,1.692,0,0,0-1.692-1.692H47.931A1.692,1.692,0,0,0,46.239,365.063Z" transform="translate(-44.425 -275.485)" fill="#0ed2b3"/>
      <path id="Path_66" data-name="Path 66" d="M178.8,436.363v5.09a1.779,1.779,0,0,0,1.779,1.779h65.847a1.779,1.779,0,0,0,1.779-1.779v-5.09a1.779,1.779,0,0,0-1.779-1.779H180.576A1.779,1.779,0,0,0,178.8,436.363Z" transform="translate(-144.922 -329.475)" fill="#c5d3dd"/>
      <path id="Path_67" data-name="Path 67" d="M178.8,436.363v5.09a1.779,1.779,0,0,0,1.779,1.779H218.9a1.779,1.779,0,0,0,1.779-1.779v-5.09a1.779,1.779,0,0,0-1.779-1.779H180.576A1.779,1.779,0,0,0,178.8,436.363Z" transform="translate(-144.922 -329.475)" fill="#fe9738"/>
      <path id="Path_68" data-name="Path 68" d="M46.239,436.277v5.264a1.692,1.692,0,0,0,1.692,1.692H65.939a1.692,1.692,0,0,0,1.692-1.692v-5.264a1.692,1.692,0,0,0-1.692-1.692H47.931A1.692,1.692,0,0,0,46.239,436.277Z" transform="translate(-44.425 -329.475)" fill="#fe7ab6"/>
      <path id="Path_69" data-name="Path 69" d="M269.126,361.256a1.814,1.814,0,0,1-1.814-1.814V314.979a1.814,1.814,0,1,1,3.628,0v44.463A1.814,1.814,0,0,1,269.126,361.256Z" transform="translate(-212.029 -237.422)" fill="#596c76"/>
      <path id="Path_70" data-name="Path 70" d="M258.822,284.658H251.7a2.678,2.678,0,0,0-2.675,2.675v6.684a2.668,2.668,0,0,0,.958,2.051l2.624,2.2a4.133,4.133,0,0,0,5.311,0l2.623-2.2a2.669,2.669,0,0,0,.958-2.051v-6.684A2.678,2.678,0,0,0,258.822,284.658Z" transform="translate(-198.162 -215.81)" fill="#01c0fa"/>
      <path id="Path_71" data-name="Path 71" d="M140.889,67.1H53.054a6.816,6.816,0,0,1-6.816-6.816V14.316A6.817,6.817,0,0,1,53.054,7.5h87.834a6.816,6.816,0,0,1,6.816,6.816V60.279a6.816,6.816,0,0,1-6.816,6.816Z" transform="translate(-44.424 -5.686)" fill="#e8edf2"/>
      <path id="Path_72" data-name="Path 72" d="M419.384,7.5h-5.8a6.816,6.816,0,0,1,6.816,6.816V60.279a6.816,6.816,0,0,1-6.816,6.816h5.8a6.816,6.816,0,0,0,6.816-6.816V14.316A6.816,6.816,0,0,0,419.384,7.5Z" transform="translate(-322.919 -5.686)" fill="#c5d3dd"/>
      <path id="Path_73" data-name="Path 73" d="M135.2,63.223H47.368a8.64,8.64,0,0,1-8.63-8.63V8.63A8.64,8.64,0,0,1,47.368,0H135.2a8.64,8.64,0,0,1,8.63,8.63V54.593A8.64,8.64,0,0,1,135.2,63.223ZM47.368,3.628a5.008,5.008,0,0,0-5,5V54.593a5.008,5.008,0,0,0,5,5H135.2a5.008,5.008,0,0,0,5-5V8.63a5.008,5.008,0,0,0-5-5Z" transform="translate(-38.738 0)" fill="#0ed2b3"/>
      <circle id="Ellipse_1" data-name="Ellipse 1" cx="8.386" cy="8.386" r="8.386" transform="translate(70.96 21.664) rotate(-2.178)" fill="#01c0fa"/>
      <path id="Path_74" data-name="Path 74" d="M348.6,93.507A8.385,8.385,0,0,1,336.4,103.913,8.386,8.386,0,1,0,348.6,93.507Z" transform="translate(-264.409 -70.891)" fill="#0290cf"/>
      <g id="Group_25" data-name="Group 25" transform="translate(14.868 17.151)">
        <path id="Path_75" data-name="Path 75" d="M148.932,83.338a1.814,1.814,0,0,0,0-3.628,24.773,24.773,0,0,0-18,7.829,33.419,33.419,0,0,0-28.907-16.626,1.814,1.814,0,0,0,0,3.628,29.706,29.706,0,0,1,16.121,4.73,30.137,30.137,0,0,1,10.813,12.284,1.814,1.814,0,0,0,3.076.31A21.134,21.134,0,0,1,148.932,83.338Z" transform="translate(-100.213 -70.913)" fill="#596c76"/>
        <path id="Path_76" data-name="Path 76" d="M249.765,138.541a17.088,17.088,0,0,0-16.486,12.58,1.814,1.814,0,1,0,3.5.954,13.46,13.46,0,0,1,12.986-9.907,1.814,1.814,0,0,0,0-3.628Z" transform="translate(-201.046 -122.184)" fill="#596c76"/>
        <path id="Path_77" data-name="Path 77" d="M118.811,108.364a25.874,25.874,0,0,0-16.785-6.195,1.814,1.814,0,0,0,0,3.628,22.3,22.3,0,0,1,21.943,18.529,1.814,1.814,0,0,0,3.577-.605A25.931,25.931,0,0,0,118.811,108.364Z" transform="translate(-100.212 -94.609)" fill="#596c76"/>
      </g>
    </g>
  </g>
</svg>
