<svg xmlns="http://www.w3.org/2000/svg" xmlns:xlink="http://www.w3.org/1999/xlink" width="355" height="386" viewBox="0 0 355 386">
  <defs>
    <filter id="Rectangle_14" x="0" y="0" width="355" height="386" filterUnits="userSpaceOnUse">
      <feOffset dy="3" input="SourceAlpha"/>
      <feGaussianBlur stdDeviation="40" result="blur"/>
      <feFlood flood-color="#a19d9d" flood-opacity="0.161"/>
      <feComposite operator="in" in2="blur"/>
      <feComposite in="SourceGraphic"/>
    </filter>
  </defs>
  <g id="phone" transform="translate(119.775 117.325)">
    <path id="Polygon_1" data-name="Polygon 1" d="M19.5,0,39,34H0Z" transform="translate(143.226 55.675) rotate(90)" fill="#ffae00"/>
    <g transform="matrix(1, 0, 0, 1, -119.77, -117.33)" filter="url(#Rectangle_14)">
      <path id="Rectangle_14-2" data-name="Rectangle 14" d="M40,0h75a0,0,0,0,1,0,0V146a0,0,0,0,1,0,0H40A40,40,0,0,1,0,106V40A40,40,0,0,1,40,0Z" transform="translate(120 117)" fill="#ffae00"/>
    </g>
    <path id="Icon_feather-phone" data-name="Icon feather-phone" d="M50.615,38.595v7.157a4.771,4.771,0,0,1-5.2,4.771A47.213,47.213,0,0,1,24.825,43.2,46.521,46.521,0,0,1,10.511,28.885,47.213,47.213,0,0,1,3.187,8.2,4.771,4.771,0,0,1,7.935,3h7.157a4.771,4.771,0,0,1,4.771,4.1,30.632,30.632,0,0,0,1.67,6.7,4.771,4.771,0,0,1-1.074,5.034l-3.03,3.03A38.171,38.171,0,0,0,31.744,36.185l3.03-3.03a4.771,4.771,0,0,1,5.034-1.074,30.632,30.632,0,0,0,6.7,1.67,4.771,4.771,0,0,1,4.1,4.843Z" transform="translate(37.621 46.066)" fill="none" stroke="#fff" stroke-linecap="round" stroke-linejoin="round" stroke-width="4"/>
  </g>
</svg>
