<svg xmlns="http://www.w3.org/2000/svg" width="60.435" height="60.435" viewBox="0 0 60.435 60.435">
  <g id="pinterest" transform="translate(-74.775 -109.602)">
    <circle id="Ellipse_8" data-name="Ellipse 8" cx="30.217" cy="30.217" r="30.217" transform="translate(74.775 109.602)" fill="#6a6975"/>
    <path id="Path_109" data-name="Path 109" d="M15.819,24.028c-2.12-.158-3.011-1.156-4.675-2.118-.915,4.56-2.032,8.932-5.343,11.217C4.78,26.234,7.3,21.056,8.472,15.563c-2-3.2.239-9.629,4.452-8.043C18.107,9.468,8.435,19.4,14.93,20.641c6.777,1.3,9.545-11.18,5.341-15.238C14.2-.456,2.592,5.27,4.02,13.657c.347,2.05,2.577,2.672.889,5.5-3.886-.819-5.046-3.733-4.9-7.618C.254,5.182,6.023.729,11.811.111,19.133-.667,26,2.667,26.951,9.212c1.067,7.388-3.3,15.389-11.132,14.816Zm0,0" transform="translate(91.166 123.719)" fill="#f1f2f2"/>
  </g>
</svg>
