<svg xmlns="http://www.w3.org/2000/svg" width="117.976" height="113.523" viewBox="0 0 117.976 113.523">
  <g id="marketing_1_" data-name="marketing (1)" transform="translate(0.001 -2.433)">
    <path id="Path_78" data-name="Path 78" d="M89.106,100.086,83.321,69.839,61.9,86.729l8.58,11.052-20.834,19.2a2.446,2.446,0,0,0,2.471,4.106l31.266-11.027a8.817,8.817,0,0,0,5.725-9.97Z" transform="translate(-3.818 -5.267)" fill="#ef5361"/>
    <path id="Path_79" data-name="Path 79" d="M25.884,37.795l30.247,5.785L39.241,65l-11.052-8.58L8.993,77.258a2.446,2.446,0,0,1-4.105-2.471L15.915,43.521a8.817,8.817,0,0,1,9.97-5.727Z" transform="translate(-0.371 -2.751)" fill="#ef5361"/>
    <path id="Path_80" data-name="Path 80" d="M95.124,5.328C83.791,8.822,70.016,16.549,57.068,33.074,42.142,52.124,34.073,63.051,29.749,69.187L53.772,93.21c6.136-4.324,17.063-12.393,36.113-27.319,16.524-12.948,24.252-26.723,27.748-38.054Z" transform="translate(-2.325 -0.226)" fill="#dbe2eb"/>
    <path id="Path_81" data-name="Path 81" d="M91.551,67.429C72.5,82.351,61.576,90.419,55.436,94.749l-4.4-4.4c6.141-4.325,17.07-12.391,36.115-27.319,16.528-12.947,24.253-26.723,27.748-38.051l4.391,4.392C115.8,40.706,108.072,54.476,91.551,67.429Z" transform="translate(-3.988 -1.762)" fill="#c8cbd2"/>
    <path id="Path_82" data-name="Path 82" d="M125.418,6.47a4.258,4.258,0,0,0-3.91-3.913A58.216,58.216,0,0,0,96.827,6.31l24.837,24.837A58.215,58.215,0,0,0,125.418,6.47Z" transform="translate(-7.566 0)" fill="#ef5361"/>
    <path id="Path_83" data-name="Path 83" d="M123.4,31.151l-4.391-4.391A58.625,58.625,0,0,0,122.8,2.528c.151.014.3.028.446.034a4.262,4.262,0,0,1,3.911,3.911A58.354,58.354,0,0,1,123.4,31.151Z" transform="translate(-9.299 -0.007)" fill="#da2a47"/>
    <path id="Path_84" data-name="Path 84" d="M32.092,70.56c-2.873,3.964-4.672,6.588-5.787,8.28a4,4,0,0,0,.517,5.04l17.034,17.034a4.005,4.005,0,0,0,5.04.516c1.693-1.115,4.314-2.914,8.28-5.787Z" transform="translate(-2.004 -5.323)" fill="#ef5361"/>
    <path id="Path_85" data-name="Path 85" d="M58.348,97.395c-3.972,2.875-6.593,4.673-8.281,5.784a3.992,3.992,0,0,1-5.043-.514l-4.391-4.391a4.007,4.007,0,0,0,5.043.514c1.688-1.111,4.309-2.908,8.281-5.784Z" transform="translate(-3.175 -7.077)" fill="#da2a47"/>
    <circle id="Ellipse_2" data-name="Ellipse 2" cx="12.815" cy="12.815" r="12.815" transform="translate(65.577 31.149) rotate(-22.514)" fill="#43567c"/>
    <path id="Path_86" data-name="Path 86" d="M97.467,49.307a12.814,12.814,0,0,1-18.127,0,13.828,13.828,0,0,1-1.324-1.543,12.818,12.818,0,0,0,17.9-17.9,13.923,13.923,0,0,1,1.543,1.324,12.814,12.814,0,0,1,.007,18.119Z" transform="translate(-6.096 -2.143)" fill="#384868"/>
    <path id="Path_87" data-name="Path 87" d="M28.6,97.536s9.114,7.291,3.515,16.8-13.41,7.421-13.41,7.421,2.6-3.733,2.212-4.9c0,0-9.548,11.458-20.919,2.778,0,0,4.774-1.823,5.772-5.772s2.908-7.682,5.3-9.461a4.794,4.794,0,0,1-5.255.911A4.653,4.653,0,0,0,8.2,100.661C7.812,97.406,20,88.769,28.6,97.536Z" transform="translate(0 -7.133)" fill="#ef5361"/>
    <path id="Path_88" data-name="Path 88" d="M30.928,98.722s-4.261-5.326-9.815-2.054S16.78,104.5,16.78,104.5s2.181-1.521,2.866-1.291c0,0-6.7,5.579-1.623,12.224,0,0,1.066-2.79,3.373-3.373s4.489-1.7,5.531-3.094a2.805,2.805,0,0,0-.533,3.069,2.72,2.72,0,0,1,2.714-1.395c1.9.225,6.943-6.9,1.82-11.922Z" transform="translate(-1.26 -7.28)" fill="#ffc943"/>
  </g>
</svg>
