<svg xmlns="http://www.w3.org/2000/svg" width="88.27" height="88.249" viewBox="0 0 88.27 88.249">
  <g id="statistices" transform="translate(-97.691)">
    <path id="Path_9" data-name="Path 9" d="M138.725,63.185V22.151A41.034,41.034,0,1,0,171.18,88.285l0,0a40.852,40.852,0,0,0,8.575-25.1Z" transform="translate(0 -15.97)" fill="#ff4c4c"/>
    <path id="Path_10" data-name="Path 10" d="M256.414,169.2A41.017,41.017,0,0,1,221.8,209.733a41.386,41.386,0,0,0,4.647.461l.28.011c.49.018.981.029,1.475.029.386,0,.772-.006,1.156-.017.122,0,.244-.009.366-.014.263-.009.525-.02.786-.035.141-.008.283-.018.424-.027q.365-.024.728-.054l.429-.038q.369-.035.736-.076c.133-.015.265-.029.4-.045.272-.033.543-.07.813-.109l.3-.042q1.133-.17,2.245-.4l.205-.045q.451-.1.9-.2l.279-.068q.417-.1.83-.212l.274-.074q.432-.118.86-.246l.213-.063q.509-.154,1.012-.321l.041-.013q1.663-.555,3.26-1.247l.012-.005q.526-.227,1.044-.469l.018-.009a41.209,41.209,0,0,0,15.125-12.1l0,0q.989-1.277,1.878-2.633l.05-.076q.2-.306.395-.617l.072-.115q.193-.311.382-.625l.04-.068q.8-1.337,1.493-2.738l.09-.182q.142-.289.279-.581l.107-.23c.088-.19.176-.381.261-.573.033-.075.066-.151.1-.226q.421-.962.794-1.949c.03-.079.061-.157.09-.236.065-.175.127-.351.189-.527.041-.115.081-.229.121-.344q.087-.251.17-.5c.042-.126.083-.253.123-.38.052-.163.1-.326.153-.489.042-.137.082-.275.123-.413.046-.157.093-.313.137-.471.049-.174.1-.349.142-.524q.09-.337.174-.676c.045-.182.091-.363.133-.546.033-.14.063-.28.094-.42.037-.169.075-.337.11-.506.03-.141.058-.282.086-.424q.051-.26.1-.521c.025-.136.05-.272.074-.409.033-.191.064-.382.1-.574.019-.121.04-.242.058-.363q.065-.433.122-.868c.008-.063.015-.125.023-.188q.051-.411.094-.823c.012-.113.021-.227.032-.34q.03-.314.056-.629c.01-.124.019-.248.028-.373q.022-.306.039-.613.01-.185.02-.37.016-.329.025-.659c0-.107.008-.213.01-.32.008-.323.012-.646.012-.971V169.2H256.414Z" transform="translate(-89.474 -121.985)" fill="#f33939"/>
    <path id="Path_11" data-name="Path 11" d="M285.773,169.2H244.739L277.2,194.3A40.854,40.854,0,0,0,285.773,169.2Z" transform="translate(-106.014 -121.985)" fill="#ffb125"/>
    <path id="Path_12" data-name="Path 12" d="M334.562,169.2a40.854,40.854,0,0,1-4.37,18.442l8.613,6.661q.99-1.277,1.878-2.633l.05-.076q.2-.306.395-.617l.072-.115q.193-.311.382-.625l.04-.068q.8-1.337,1.493-2.738l.09-.182q.142-.289.279-.581l.107-.23q.133-.285.261-.573c.034-.075.066-.151.1-.226q.421-.962.794-1.949c.03-.079.061-.157.09-.236.065-.175.127-.351.189-.527.041-.115.081-.229.121-.344.058-.167.114-.335.17-.5q.062-.19.123-.38c.052-.163.1-.326.153-.489.042-.137.082-.275.123-.413.046-.157.093-.313.137-.471.049-.174.1-.349.142-.524q.09-.337.174-.676c.045-.182.09-.363.133-.546.033-.14.063-.28.094-.42.037-.169.075-.337.11-.506.03-.141.058-.282.086-.424q.051-.26.1-.521c.025-.136.05-.272.074-.409.033-.191.064-.382.1-.574.019-.121.04-.242.058-.363q.065-.433.121-.868c.008-.062.015-.125.023-.188q.051-.411.094-.823c.012-.113.021-.226.032-.34q.03-.314.056-.629c.01-.124.019-.248.028-.373q.022-.306.039-.613.01-.185.02-.37c.01-.219.018-.439.025-.659,0-.107.008-.213.01-.32.008-.323.012-.646.012-.971,0,0,0-.006,0-.009H334.562Z" transform="translate(-167.622 -121.985)" fill="#ff901d"/>
    <path id="Path_21" data-name="Path 21" d="M315.733,38.347A41.036,41.036,0,0,0,277.692,0V38.347Z" transform="translate(-129.772)" fill="#21d8de"/>
    <path id="Path_22" data-name="Path 22" d="M277.692,0V2.918a41.054,41.054,0,0,1,25.478,35.43h12.563A41.037,41.037,0,0,0,277.692,0Z" transform="translate(-129.772)" fill="#10c4c4"/>
  </g>
</svg>
