<svg xmlns="http://www.w3.org/2000/svg" width="60.435" height="60.435" viewBox="0 0 60.435 60.435">
  <g id="twitter" transform="translate(-149.55 -109.602)">
    <circle id="Ellipse_9" data-name="Ellipse 9" cx="30.217" cy="30.217" r="30.217" transform="translate(149.55 109.602)" fill="#ff6547"/>
    <path id="Path_110" data-name="Path 110" d="M30.116,2.853a12.5,12.5,0,0,1-3.548.957A6.134,6.134,0,0,0,29.286.445,12.539,12.539,0,0,1,25.361,1.92,6.216,6.216,0,0,0,20.85,0a6.131,6.131,0,0,0-6.178,6.082,5.988,5.988,0,0,0,.16,1.387A17.634,17.634,0,0,1,2.1,1.112,5.973,5.973,0,0,0,1.26,4.17,6.057,6.057,0,0,0,4.007,9.233a6.22,6.22,0,0,1-2.8-.762v.078a6.111,6.111,0,0,0,4.956,5.962,6.267,6.267,0,0,1-2.79.106,6.176,6.176,0,0,0,5.774,4.223,12.517,12.517,0,0,1-7.674,2.6A12.489,12.489,0,0,1,0,21.36a17.687,17.687,0,0,0,9.47,2.733,17.607,17.607,0,0,0,11.1-3.775A17.526,17.526,0,0,0,27.051,6.786c0-.264-.007-.525-.018-.786a12.435,12.435,0,0,0,3.082-3.147Zm0,0" transform="translate(164.949 128.237)" fill="#fff"/>
  </g>
</svg>
